<?xml version="1.0" encoding="utf-8"?>
<!-- Svg Vector Icons : http://www.onlinewebfonts.com/icon -->
<!DOCTYPE svg PUBLIC "-//W3C//DTD SVG 1.1//EN" "http://www.w3.org/Graphics/SVG/1.1/DTD/svg11.dtd">
<svg version="1.1" xmlns="http://www.w3.org/2000/svg" xmlns:xlink="http://www.w3.org/1999/xlink" x="0px" y="0px" viewBox="0 0 1000 1000" enable-background="new 0 0 1000 1000" xml:space="preserve">
<metadata> Svg Vector Icons : http://www.onlinewebfonts.com/icon </metadata>
<g><g transform="translate(0.000000,250.000000) scale(0.100000,-0.100000)"><path d="M4565.3,2336.9c-54.6-7.8-229.9-35.1-389.7-58.5c-939.2-136.4-1940.8-650.8-2650.1-1364c-1859-1858.9-1905.7-4820.8-105.2-6722.6c744.4-787.2,1683.6-1293.9,2743.6-1477c717.1-124.7,1710.9-54.5,2389,175.4c2572.1,861.3,3947.8,3601,3094.3,6149.7C9008,957.3,7203.7,2282.3,5149.9,2340.8C4880.9,2348.6,4619.8,2348.6,4565.3,2336.9z M5391.5,1697.8c541.7-54.6,962.6-171.5,1453.6-405.3C8696.3,403.9,9631.6-1595.3,9125-3582.9c-101.3-393.6-440.4-1091.2-693.7-1422.5C7819.4-5808.1,7028.3-6334.2,6015-6611c-253.3-70.1-413.1-81.8-1001.6-81.8c-639.1-3.9-736.6,7.8-1083.4,101.3c-432.6,116.9-993.8,370.2-1356.2,611.9c-323.5,218.3-908,806.7-1118.5,1130.2c-245.5,374.2-463.8,845.7-576.8,1254.9C753.9-3142.5,711-2374.8,785-1883.7C1007.2-359.9,2086.7,941.7,3571.5,1475.6c393.6,140.3,759.9,206.6,1383.5,253.3C4986.1,1732.8,5184.9,1717.2,5391.5,1697.8z"/><path d="M2191.9-32.6c-54.6-31.2-109.1-85.7-124.7-124.7c-15.6-42.9-31.2-1067.8-31.2-2279.8c-3.9-2120,0-2213.5,70.1-2299.3l74-93.5l2864.4-11.7l2864.4-7.8l113,93.5l109.1,93.5v2248.7v2248.7l-109.1,93.5L7912.9,22H5099.2C2803.7,18.1,2265.9,10.3,2191.9-32.6z M7449.2-2784v-1403H5091.4H2733.6v1403v1403h2357.8h2357.8V-2784z"/><path d="M5426.5-1778.5c-424.8-210.4-569-802.8-272.8-1141.9c218.3-245.5,627.5-319.6,884.7-152c101.3,66.2,105.2,50.7,31.2-93.5c-120.8-233.8-315.7-350.7-646.9-385.8l-233.8-23.4v-187.1v-191h202.7c518.3,0,923.6,233.8,1130.2,650.8c116.9,241.6,128.6,292.3,128.6,635.2c0,304-15.6,397.5-85.8,526.1c-101.3,187.1-265,350.7-413.1,405.3C5964.3-1661.6,5617.5-1685,5426.5-1778.5z M6026.7-2160.4c42.9-46.8,77.9-159.8,89.6-288.4c15.6-183.2,7.8-214.3-74.1-272.8c-101.3-70.2-276.7-81.9-381.9-23.4c-163.7,85.8-190.9,366.3-58.5,576.8C5676-2051.3,5925.4-2047.4,6026.7-2160.4z"/><path d="M3840.4-1864.2l-280.6-132.5l42.9-179.3c23.4-97.4,54.6-179.3,74.1-179.3c19.5,0,101.3,35.1,187.1,77.9c85.7,42.9,163.7,77.9,175.4,77.9c11.7,0,19.5-385.8,19.5-857.4v-857.4h272.8h272.8v1091.2v1091.2h-241.6C4167.7-1735.6,4058.6-1762.9,3840.4-1864.2z"/></g></g>
</svg>