<?xml version="1.0" encoding="utf-8"?>
<!-- Svg Vector Icons : http://www.onlinewebfonts.com/icon -->
<!DOCTYPE svg PUBLIC "-//W3C//DTD SVG 1.1//EN" "http://www.w3.org/Graphics/SVG/1.1/DTD/svg11.dtd">
<svg version="1.1" xmlns="http://www.w3.org/2000/svg" xmlns:xlink="http://www.w3.org/1999/xlink" x="0px" y="0px" viewBox="0 0 1000 1000" enable-background="new 0 0 1000 1000" xml:space="preserve">
<metadata> Svg Vector Icons : http://www.onlinewebfonts.com/icon </metadata>
<g><g transform="translate(0.000000,250.000000) scale(0.100000,-0.100000)"><path d="M4565.3,2336.9c-54.6-7.8-229.9-35.1-389.7-58.5c-939.2-136.4-1940.8-650.8-2650.1-1364c-1859-1858.9-1905.7-4820.8-105.2-6722.6c744.4-787.2,1683.6-1293.9,2743.6-1477c717.1-124.7,1710.9-54.5,2389,175.4c2572.1,861.3,3947.8,3601,3094.3,6149.7C9008,957.3,7203.7,2282.3,5149.9,2340.8C4880.9,2348.6,4619.8,2348.6,4565.3,2336.9z M5753.9,1651C6599.6,1510.7,7558.3,988.5,8135.1,361C9117.1-714.6,9487.4-2172.1,9125-3582.9c-101.3-393.6-440.4-1091.2-693.7-1422.5C7819.4-5808.1,7028.3-6334.2,6015-6611c-253.3-70.1-413.1-81.8-1001.6-81.8c-639.1-3.9-736.6,7.8-1083.4,101.3c-432.6,116.9-993.8,370.2-1356.2,611.9c-323.5,218.3-908,806.7-1118.5,1130.2c-448.2,682-662.5,1336.7-697.6,2127.9c-27.3,604,23.4,1024.9,183.2,1504.3C1615.1,813.1,3626,2009.5,5753.9,1651z"/><path d="M5212.2,275.3C4382.1,64.9,3762.4-593.8,3622.1-1408.3c-58.5-346.8-3.9-724.9,152-1075.6l105.2-229.9l-853.5-822.3l-849.6-826.2l-15.6-194.9c-11.7-148.1,3.9-226,58.5-315.7c132.5-206.5,444.3-304,682-214.3c54.6,19.5,467.7,397.5,923.6,834l830.1,798.9l163.7-74c432.6-191,1001.6-245.5,1442-132.5c1426.3,362.4,2046,1948.6,1215.9,3109.9C7094.5-17,6513.9,287,5812.4,318.2C5562.9,326,5368.1,314.3,5212.2,275.3z M5987.7-332.7c463.7-85.7,853.5-370.2,1056.1-763.8c155.9-307.9,179.3-744.3,54.6-1071.7c-288.4-771.6-1235.4-1137.9-2011-775.5c-900.2,420.9-1095.1,1551-381.9,2225.2c222.1,210.4,456,335.2,728.8,385.8C5668.2-285.9,5730.5-285.9,5987.7-332.7z"/></g></g>
</svg>