<?xml version="1.0" encoding="utf-8"?>
<!-- Svg Vector Icons : http://www.onlinewebfonts.com/icon -->
<!DOCTYPE svg PUBLIC "-//W3C//DTD SVG 1.1//EN" "http://www.w3.org/Graphics/SVG/1.1/DTD/svg11.dtd">
<svg version="1.1" xmlns="http://www.w3.org/2000/svg" xmlns:xlink="http://www.w3.org/1999/xlink" x="0px" y="0px" viewBox="0 0 1000 1000" enable-background="new 0 0 1000 1000" xml:space="preserve">
<metadata> Svg Vector Icons : http://www.onlinewebfonts.com/icon </metadata>
<g><g transform="translate(0.000000,250.000000) scale(0.100000,-0.100000)"><path d="M4565.3,2336.9c-54.6-7.8-229.9-35.1-389.7-58.5c-939.2-136.4-1940.8-650.8-2650.1-1364c-1859-1858.9-1905.7-4820.8-105.2-6722.6c744.4-787.2,1683.6-1293.9,2743.6-1477c717.1-124.7,1710.9-54.5,2389,175.4c2572.1,861.3,3947.8,3601,3094.3,6149.7C9008,957.3,7203.7,2282.3,5149.9,2340.8C4880.9,2348.6,4619.8,2348.6,4565.3,2336.9z M5753.9,1651C6599.6,1510.7,7558.3,988.5,8135.1,361C9117.1-714.6,9487.4-2172.1,9125-3582.9c-101.3-393.6-440.4-1091.2-693.7-1422.5C7819.4-5808.1,7028.3-6334.2,6015-6611c-253.3-70.1-413.1-81.8-1001.6-81.8c-639.1-3.9-736.6,7.8-1083.4,101.3c-432.6,116.9-993.8,370.2-1356.2,611.9c-323.5,218.3-908,806.7-1118.5,1130.2c-448.2,682-662.5,1336.7-697.6,2127.9c-27.3,604,23.4,1024.9,183.2,1504.3C1615.1,813.1,3626,2009.5,5753.9,1651z"/><path d="M4569.2,298.7c-23.4-42.9-42.9-144.2-42.9-229.9c0-85.7-23.4-171.5-50.7-194.9c-74.1-62.4-892.5-397.5-970.4-397.5c-35.1,0-136.4,62.4-226,136.4S3096-262.5,3072.7-278.1c-148.1-85.7-533.9-459.9-533.9-514.4c0-39,62.4-124.7,136.4-198.8c81.8-77.9,136.4-171.5,136.4-226c0-109.1-257.2-744.4-335.2-826.2c-31.2-31.2-155.9-66.3-280.6-77.9l-222.1-19.5v-389.7v-389.7L2149-2932c331.3-19.5,327.4-11.7,541.7-494.9c109.1-245.5,198.8-479.3,198.8-518.3c0-39-62.4-128.6-136.4-202.7c-74-74-136.4-163.7-136.4-198.7c0-62.4,452.1-498.8,549.5-533.9c19.5-7.8,109.1,50.7,202.6,124.7c93.5,77.9,210.5,140.3,257.2,140.3c97.4,0,771.7-253.3,849.6-319.6c27.3-23.4,50.7-116.9,50.7-210.4c0-265,85.7-327.4,452.1-327.4c389.7,0,444.3,31.2,444.3,265c0,105.2,23.4,214.3,50.7,249.4c46.8,62.3,888.5,420.9,986,420.9c31.2,0,120.8-62.3,206.5-136.4c81.9-74,171.5-136.4,198.8-136.4c70.1,0,545.6,471.6,545.6,545.6c0,35.1-62.4,120.8-136.4,194.9c-74.1,74.1-136.4,163.7-136.4,198.8c0,105.2,311.8,830.1,381.9,884.6c35.1,23.4,144.2,46.8,249.4,46.8c229.9,0,265,54.6,265,409.2c0,339.1-39,409.2-233.8,409.2c-284.5,0-315.7,31.2-537.8,537.8c-226.1,506.6-226.1,522.2-31.2,705.4c54.6,54.6,101.4,124.7,101.4,163.7c0,39-124.7,175.4-272.8,307.9c-300.1,253.3-319.6,257.2-502.8,62.4c-54.5-54.6-136.4-101.3-187.1-101.3c-54.6,0-276.7,70.1-502.7,159.8c-436.5,167.6-432.6,167.6-452.1,483.2l-11.7,155.9l-397.5,11.7C4643.2,372.7,4604.2,368.8,4569.2,298.7z M5383.7-1677.2c268.9-113,506.6-420.9,565.1-728.8c39-194.9-42.9-494.9-175.4-678.1c-62.4-85.7-206.5-202.6-319.6-268.9c-265-144.2-662.5-159.8-908.1-27.3C4195-3197,4008-2897,4008-2530.6c0,463.8,292.3,802.8,810.6,931.4C4931.6-1571.9,5227.8-1614.8,5383.7-1677.2z"/></g></g>
</svg>