<?xml version="1.0" encoding="utf-8"?>
<!-- Svg Vector Icons : http://www.onlinewebfonts.com/icon -->
<!DOCTYPE svg PUBLIC "-//W3C//DTD SVG 1.1//EN" "http://www.w3.org/Graphics/SVG/1.1/DTD/svg11.dtd">
<svg version="1.1" xmlns="http://www.w3.org/2000/svg" xmlns:xlink="http://www.w3.org/1999/xlink" x="0px" y="0px" viewBox="0 0 1000 1000" enable-background="new 0 0 1000 1000" xml:space="preserve">
<metadata> Svg Vector Icons : http://www.onlinewebfonts.com/icon </metadata>
<g><g transform="translate(0.000000,250.000000) scale(0.100000,-0.100000)"><path d="M4565.3,2336.9c-54.6-7.8-229.9-35.1-389.7-58.5c-939.2-136.4-1940.8-650.8-2650.1-1364c-1859-1858.9-1905.7-4820.8-105.2-6722.6c744.4-787.2,1683.6-1293.9,2743.6-1477c717.1-124.7,1710.9-54.5,2389,175.4c2572.1,861.3,3947.8,3601,3094.3,6149.7C9008,957.3,7203.7,2282.3,5149.9,2340.8C4880.9,2348.6,4619.8,2348.6,4565.3,2336.9z M5753.9,1651C6599.6,1510.7,7558.3,988.5,8135.1,361C9117.1-714.6,9487.4-2172.1,9125-3582.9c-101.3-393.6-440.4-1091.2-693.7-1422.5C7819.4-5808.1,7028.3-6334.2,6015-6611c-253.3-70.1-413.1-81.8-1001.6-81.8c-639.1-3.9-736.6,7.8-1083.4,101.3c-432.6,116.9-993.8,370.2-1356.2,611.9c-323.5,218.3-908,806.7-1118.5,1130.2c-448.2,682-662.5,1336.7-697.6,2127.9c-27.3,604,23.4,1024.9,183.2,1504.3C1615.1,813.1,3626,2009.5,5753.9,1651z"/><path d="M4565.3-523.6v-1208.1H4955h389.7v1208.1V684.5H4955h-389.7V-523.6z"/><path d="M3781.9-332.7c-444.3-222.1-927.5-701.5-1134.1-1126.3c-491-997.7-304-2143.4,483.3-2930.7c498.8-498.8,1110.7-748.2,1843.3-748.2c962.6,0,1866.7,549.5,2272.1,1379.6c214.3,432.6,280.6,717.1,280.6,1169.1c0,982.1-518.3,1812.2-1418.6,2264.2c-452.1,226-452.1,226-452.1-214.3v-366.3l222.1-124.7c304-171.5,569-456,736.5-798.9c265-533.9,226-1223.7-97.4-1726.4c-643-989.9-2030.4-1141.9-2860.5-315.7c-721,721-713.2,1862.8,19.5,2572.1c93.5,89.6,261.1,214.3,374.1,276.7l202.7,116.9v366.3C4253.5-98.8,4257.4-98.8,3781.9-332.7z"/></g></g>
</svg>